<svg width="456" height="309" viewBox="0 0 456 309" fill="none" xmlns="http://www.w3.org/2000/svg">
<path d="M289.025 24.9513C173.15 16.3676 90.111 73.5353 130.175 115.508C130.175 115.508 40.6818 131.332 33.3764 176.624C28.6065 206.195 67.7171 226.227 67.7171 226.227C67.7171 226.227 31.3985 282.49 187.91 283.462C341.491 284.416 419.712 273.923 427.343 228.135C434.974 182.347 381.555 157.546 381.555 157.546C381.555 157.546 426.389 147.053 424.482 106.034C422.574 65.0158 366.292 30.6751 289.025 24.9513Z" fill="#F7EDE1"/>

<path d="M255.041 130.63C260.196 130.63 264.374 126.451 264.374 121.297C264.374 116.142 260.196 111.964 255.041 111.964C249.887 111.964 245.708 116.142 245.708 121.297C245.708 126.451 249.887 130.63 255.041 130.63Z" fill="#4CAF4F"/>
<path d="M436.887 158.492C447.072 148.307 447.072 131.793 436.887 121.607C426.701 111.422 410.187 111.422 400.002 121.607C389.816 131.793 389.816 148.307 400.002 158.492C410.187 168.678 426.701 168.678 436.887 158.492Z" fill="#AB6DDC"/>
<path d="M418.449 113.967C404.045 113.967 392.368 125.644 392.368 140.049C392.368 144.437 393.456 148.57 395.371 152.199C406.849 146.347 421.684 134.961 424.174 114.605C422.33 114.191 420.416 113.967 418.449 113.967Z" fill="#FF8B81"/>
<path d="M84.7034 145.646C122.599 145.646 153.319 114.925 153.319 77.03C153.319 39.1345 122.599 8.41406 84.7034 8.41406C46.8079 8.41406 16.0875 39.1345 16.0875 77.03C16.0875 114.925 46.8079 145.646 84.7034 145.646Z" fill="#4CAF4F"/>
<!-- <path d="M130.175 115.507C130.175 115.507 89.4279 122.715 60.6787 141.318C68.1565 144.114 76.2505 145.646 84.7033 145.646C122.598 145.646 153.319 114.926 153.319 77.0303C153.319 68.4561 151.742 60.2514 148.869 52.6846C120.366 70.9885 110.65 95.0519 130.175 115.507Z" fill="#4CAF4F"/> -->
<path d="M130.175 115.507C130.175 115.507 89.4279 122.715 60.6787 141.318C68.1565 144.114 76.2505 145.646 84.7033 145.646C122.598 145.646 153.319 114.926 153.319 77.0303C153.319 68.4561 151.742 60.2514 148.869 52.6846C120.366 70.9885 110.65 95.0519 130.175 115.507Z" fill="#4CAF4F"/>
<path d="M289.593 99.3955C291.935 99.3955 293.833 96.7381 293.833 93.46C293.833 90.1818 291.935 87.5244 289.593 87.5244C287.252 87.5244 285.353 90.1818 285.353 93.46C285.353 96.7381 287.252 99.3955 289.593 99.3955Z" fill="#4CAF4F"/>
<path d="M402.956 143.63C383.717 132.042 356.896 126.318 332.415 126.318C305.636 126.318 258.642 136.494 249.739 167.021C240.835 197.547 231.295 221.715 231.295 221.715L186.777 167.657L163.246 183.556C163.246 183.556 196.317 280.224 232.567 282.132C268.818 284.04 276.45 238.886 276.45 238.886L277.407 282.343C311.12 283.44 341.911 281.42 366.334 275.772C373.514 298.365 382.626 309.737 399.829 308.843C427.854 307.387 426.267 266.96 427.811 237.614C431.262 172.056 422.194 155.217 402.956 143.63Z" fill="#D39890"/>
<mask id="mask0_162_2429" style="mask-type:luminance" maskUnits="userSpaceOnUse" x="163" y="126" width="266" height="183">
<path d="M402.956 143.632C383.717 132.044 356.896 126.32 332.415 126.32C305.636 126.32 258.642 136.496 249.739 167.023C240.835 197.549 231.295 221.716 231.295 221.716L186.777 167.659L163.246 183.558C163.246 183.558 196.317 280.226 232.567 282.134C268.818 284.042 276.45 238.888 276.45 238.888L277.407 282.345C311.12 283.442 341.911 281.422 366.334 275.774C373.514 298.367 382.626 309.738 399.829 308.845C427.854 307.389 426.267 266.962 427.811 237.616C431.262 172.058 422.194 155.219 402.956 143.632Z" fill="white"/>
</mask>
<g mask="url(#mask0_162_2429)">
<path d="M277.403 283.722L276.767 230.3L228.433 210.585C228.433 210.585 233.699 193.793 246.099 158.499C258.5 123.204 290.933 132.743 290.933 132.743L352.937 126.066C352.937 126.066 409.58 119.323 425.692 137.978C441.803 156.633 442.651 232.527 442.651 232.527L385.413 236.395L372.8 216.627C364.533 207.406 363.481 229.309 359.127 238.462C359.127 238.462 362.52 265.597 366.335 275.773C370.149 285.948 277.403 283.722 277.403 283.722Z" fill="#4CAF4F"/>
</g>
<path d="M309.403 107.968C321.218 107.968 330.795 96.0785 330.795 81.4122C330.795 66.7459 321.218 54.8564 309.403 54.8564C297.588 54.8564 288.011 66.7459 288.011 81.4122C288.011 96.0785 297.588 107.968 309.403 107.968Z" fill="#D39890"/>
<path d="M303.16 103.424L304.432 133.951C304.432 133.951 308.248 139.038 322.876 138.402C337.503 137.766 345.135 128.227 345.135 128.227L327.963 87.5244L303.16 103.424Z" fill="#D39890"/>
<path d="M231.295 221.715C231.931 224.259 247.195 243.338 247.195 243.338" stroke="#120A28" stroke-miterlimit="10" stroke-linecap="round" stroke-linejoin="round"/>
<path d="M296.94 82.5998C296.94 83.915 296.198 84.9809 295.281 84.9809C294.365 84.9809 293.622 83.915 293.622 82.5998C293.622 81.2846 294.365 80.2188 295.281 80.2188C296.198 80.2188 296.94 81.2846 296.94 82.5998Z" fill="#120A28"/>
<path d="M311.04 84.8178C311.957 84.8178 312.7 83.7518 312.7 82.4368C312.7 81.1217 311.957 80.0557 311.04 80.0557C310.124 80.0557 309.381 81.1217 309.381 82.4368C309.381 83.7518 310.124 84.8178 311.04 84.8178Z" fill="#120A28"/>
<path d="M299.662 79.8936C300.616 83.5599 300.616 85.1308 300.616 85.1308L299.773 85.548C298.665 86.0956 298.595 87.3961 299.64 88.0219L300.934 88.7972" stroke="#120A28" stroke-width="0.9075" stroke-miterlimit="10" stroke-linecap="round" stroke-linejoin="round"/>
<path d="M303.16 95.1559C303.16 95.1559 307.612 95.1559 308.248 90.7041L300.616 93.248C300.616 93.248 300.934 94.8379 303.16 95.1559Z" stroke="#120A28" stroke-miterlimit="10" stroke-linecap="round" stroke-linejoin="round"/>
<path d="M291.077 78.6213C291.077 78.6213 292.667 76.0774 297.755 76.7134" stroke="#120A28" stroke-miterlimit="10" stroke-linecap="round" stroke-linejoin="round"/>
<path d="M315.005 77.668C315.005 77.668 313.184 75.2844 308.178 76.3942" stroke="#120A28" stroke-miterlimit="10" stroke-linecap="round" stroke-linejoin="round"/>
<path d="M329.872 96.4277C332.213 96.4277 334.112 93.7703 334.112 90.4922C334.112 87.2141 332.213 84.5566 329.872 84.5566C327.53 84.5566 325.632 87.2141 325.632 90.4922C325.632 93.7703 327.53 96.4277 329.872 96.4277Z" fill="#4CAF4F"/>
<path d="M323.723 78.7147C323.723 83.3453 324.347 85.6157 327.645 85.6157C330.943 85.6157 336.231 82.9325 336.231 78.302C336.231 73.6708 331.897 70.9883 328.599 70.9883C325.301 70.9883 323.723 74.0842 323.723 78.7147Z" fill="#D39890"/>
<mask id="mask1_162_2429" style="mask-type:luminance" maskUnits="userSpaceOnUse" x="288" y="54" width="43" height="54">
<path d="M309.403 107.968C321.218 107.968 330.795 96.0785 330.795 81.4122C330.795 66.7459 321.218 54.8564 309.403 54.8564C297.588 54.8564 288.011 66.7459 288.011 81.4122C288.011 96.0785 297.588 107.968 309.403 107.968Z" fill="white"/>
</mask>
<g mask="url(#mask1_162_2429)">
<path d="M291.713 62.086C291.713 62.086 312.524 75.7372 331.144 70.6716C349.763 65.6061 316.834 44.5967 316.834 44.5967L288.851 46.5046L291.713 62.086Z" fill="#120A28"/>
</g>
<mask id="mask2_162_2429" style="mask-type:luminance" maskUnits="userSpaceOnUse" x="288" y="54" width="43" height="54">
<path d="M309.403 107.968C321.218 107.968 330.795 96.0785 330.795 81.4122C330.795 66.7459 321.218 54.8564 309.403 54.8564C297.588 54.8564 288.011 66.7459 288.011 81.4122C288.011 96.0785 297.588 107.968 309.403 107.968Z" fill="white"/>
</mask>
<g mask="url(#mask2_162_2429)">
<path d="M289.805 59.5418C289.805 59.5418 303.381 76.308 322.558 74.1692C341.735 72.0305 316.655 47.9156 316.655 47.9156L288.712 45.4932L289.805 59.5418Z" stroke="#120A28" stroke-miterlimit="10" stroke-linecap="round" stroke-linejoin="round"/>
</g>
<path d="M322.875 63.3571C335.169 63.3571 345.134 53.3913 345.134 41.098C345.134 28.8046 335.169 18.8389 322.875 18.8389C310.582 18.8389 300.616 28.8046 300.616 41.098C300.616 53.3913 310.582 63.3571 322.875 63.3571Z" fill="#120A28"/>
<path d="M292.508 89.7508C295.757 89.7508 298.391 86.5476 298.391 82.5961C298.391 78.6447 295.757 75.4414 292.508 75.4414C289.259 75.4414 286.625 78.6447 286.625 82.5961C286.625 86.5476 289.259 89.7508 292.508 89.7508Z" stroke="#120A28" stroke-width="0.9075" stroke-miterlimit="10" stroke-linecap="round" stroke-linejoin="round"/>
<path d="M310.024 88.7967C313.814 88.7967 316.887 85.5935 316.887 81.642C316.887 77.6906 313.814 74.4873 310.024 74.4873C306.233 74.4873 303.16 77.6906 303.16 81.642C303.16 85.5935 306.233 88.7967 310.024 88.7967Z" stroke="#120A28" stroke-width="0.9802" stroke-miterlimit="10" stroke-linecap="round" stroke-linejoin="round"/>
<path d="M297.437 79.5754C297.437 79.5754 299.98 78.6214 303.796 79.5754" stroke="#120A28" stroke-width="0.9802" stroke-miterlimit="10" stroke-linecap="round" stroke-linejoin="round"/>
<path d="M332.733 74.1689C326.373 74.1689 327.963 82.7546 327.963 82.7546C327.963 82.7546 328.281 78.6208 331.461 77.0308" stroke="#120A28" stroke-width="0.9802" stroke-miterlimit="10" stroke-linecap="round" stroke-linejoin="round"/>
<path d="M303.297 106.87C305.232 107.584 307.282 107.967 309.403 107.967C314.761 107.967 319.66 105.521 323.413 101.48C323.413 101.48 320.289 108.401 315.244 110.419C307.294 113.599 303.479 111.373 303.479 111.373L303.297 106.87Z" fill="#120A28"/>
<path d="M163.246 183.557C174.128 188.282 186.777 167.657 186.777 167.657C186.777 167.657 180.279 142.282 176.463 139.421C172.648 136.559 173.846 156.21 173.846 156.21C173.846 156.21 152.223 131.618 148.831 132.467C145.439 133.315 151.375 143.914 151.375 143.914C151.375 143.914 138.231 132.467 136.536 134.586C134.84 136.706 142.471 146.882 142.471 146.882C142.471 146.882 134.415 138.826 131.871 142.218C129.328 145.61 145.015 163.841 145.015 163.841C145.015 163.841 132.296 154.938 130.6 159.178C129.543 161.818 147.135 176.561 163.246 183.557Z" fill="#D39890"/>
<path d="M274.717 172.808C274.717 172.808 261.362 190.932 268.04 203.333C274.717 215.734 278.533 213.826 276.45 238.887" stroke="#120A28" stroke-miterlimit="10" stroke-linecap="round" stroke-linejoin="round"/>
<path d="M290.933 132.743C290.933 132.743 298.564 122.25 303.334 126.066C308.104 129.882 336.721 128.928 341.491 122.25C346.26 115.573 357.854 128.226 357.854 128.226C357.854 128.226 339.555 138.338 322.876 138.402C306.196 138.466 290.933 132.743 290.933 132.743Z" fill="#4CAF4F"/>
<path d="M290.933 132.744C290.933 132.744 305.047 140.158 323.512 139.039C345.619 137.699 357.854 128.228 357.854 128.228" stroke="#120A28" stroke-width="0.9802" stroke-miterlimit="10" stroke-linecap="round" stroke-linejoin="round"/>
<path d="M307.621 128.197L304.271 136.571" stroke="#120A28" stroke-width="0.9802" stroke-miterlimit="10" stroke-linecap="round" stroke-linejoin="round"/>
<path d="M319.344 128.197V138.916" stroke="#120A28" stroke-width="0.9802" stroke-miterlimit="10" stroke-linecap="round" stroke-linejoin="round"/>
<path d="M329.871 127.591L333.747 137.241" stroke="#120A28" stroke-width="0.9802" stroke-miterlimit="10" stroke-linecap="round" stroke-linejoin="round"/>
<path d="M339.441 124.178L347.678 133.103" stroke="#120A28" stroke-width="0.9802" stroke-miterlimit="10" stroke-linecap="round" stroke-linejoin="round"/>
<path d="M372.163 216.469C372.163 216.469 358.278 199.033 355.31 199.457C352.342 199.881 358.278 210.904 358.278 210.904L372.163 216.469Z" fill="#D39890"/>
<path d="M359.338 235.283L360.49 224.493L352.292 166.798L285.969 176.222L298.971 267.731L362.282 258.735C360.68 252.566 359.338 235.283 359.338 235.283Z" fill="white"/>
<path d="M372.561 216.628C372.561 216.628 355.735 203.272 341.319 203.272C326.903 203.272 321.815 202.425 323.087 204.968C324.359 207.512 326.055 208.36 326.055 208.36C326.055 208.36 316.304 207.512 317.152 210.056C318 212.6 324.359 214.72 324.359 214.72C324.359 214.72 316.728 215.568 318 217.688C319.272 219.808 326.903 221.928 326.903 221.928C326.903 221.928 319.696 223.624 320.968 225.744C322.24 227.864 340.471 229.135 344.711 231.256C348.951 233.376 359.762 239.047 359.762 239.047L372.561 216.628Z" fill="#D39890"/>
<path d="M402.541 262.475L385.413 235.917L385.837 200.303" stroke="#120A28" stroke-miterlimit="10" stroke-linecap="round" stroke-linejoin="round"/>
<path d="M150.739 165.325C150.739 165.325 164.518 170.413 168.122 167.869" stroke="#120A28" stroke-miterlimit="10" stroke-linecap="round" stroke-linejoin="round"/>
<path d="M173.846 156.209C173.846 156.209 171.938 163.629 172.786 167.657" stroke="#120A28" stroke-miterlimit="10" stroke-linecap="round" stroke-linejoin="round"/>
<path d="M251.662 69.9638L179.72 9.19141L171.557 18.8554L243.499 79.6278L251.662 69.9638Z" fill="#4CAF4F"/>
<path d="M243.514 79.6241L251.677 69.9598L205.05 30.5752C199.871 31.7428 194.874 33.051 190.073 34.4839L243.514 79.6241Z" fill="#65D0A9"/>
<path d="M181.094 10.5713L179.053 12.9874" stroke="#120A28" stroke-width="0.9802" stroke-miterlimit="10" stroke-linecap="round" stroke-linejoin="round"/>
<path d="M186.462 15.1055L184.422 17.5215" stroke="#120A28" stroke-width="0.9802" stroke-miterlimit="10" stroke-linecap="round" stroke-linejoin="round"/>
<path d="M191.832 19.6406L189.791 22.0567" stroke="#120A28" stroke-width="0.9802" stroke-miterlimit="10" stroke-linecap="round" stroke-linejoin="round"/>
<path d="M197.201 24.1758L195.16 26.5918" stroke="#120A28" stroke-width="0.9802" stroke-miterlimit="10" stroke-linecap="round" stroke-linejoin="round"/>
<path d="M202.57 28.7109L200.529 31.127" stroke="#120A28" stroke-width="0.9802" stroke-miterlimit="10" stroke-linecap="round" stroke-linejoin="round"/>
<path d="M207.94 33.2471L205.899 35.6631" stroke="#120A28" stroke-width="0.9802" stroke-miterlimit="10" stroke-linecap="round" stroke-linejoin="round"/>
<path d="M213.309 37.7812L211.268 40.1973" stroke="#120A28" stroke-width="0.9802" stroke-miterlimit="10" stroke-linecap="round" stroke-linejoin="round"/>
<path d="M218.678 42.3174L216.637 44.7335" stroke="#120A28" stroke-width="0.9802" stroke-miterlimit="10" stroke-linecap="round" stroke-linejoin="round"/>
<path d="M224.047 46.8516L222.006 49.2676" stroke="#120A28" stroke-width="0.9802" stroke-miterlimit="10" stroke-linecap="round" stroke-linejoin="round"/>
<path d="M229.416 51.3857L227.375 53.8018" stroke="#120A28" stroke-width="0.9802" stroke-miterlimit="10" stroke-linecap="round" stroke-linejoin="round"/>
<path d="M234.784 55.9219L232.744 58.3379" stroke="#120A28" stroke-width="0.9802" stroke-miterlimit="10" stroke-linecap="round" stroke-linejoin="round"/>
<path d="M240.154 60.458L238.113 62.8741" stroke="#120A28" stroke-width="0.9802" stroke-miterlimit="10" stroke-linecap="round" stroke-linejoin="round"/>
<path d="M245.523 64.9912L243.482 67.4073" stroke="#120A28" stroke-width="0.9802" stroke-miterlimit="10" stroke-linecap="round" stroke-linejoin="round"/>
<path d="M250.892 69.5273L248.851 71.9434" stroke="#120A28" stroke-width="0.9802" stroke-miterlimit="10" stroke-linecap="round" stroke-linejoin="round"/>
<path d="M436.71 86.8264L373.593 106.387L364.574 105.677L371.791 100.572L434.908 81.0117L436.71 86.8264Z" fill="#FA4C10"/>
<mask id="mask3_162_2429" style="mask-type:luminance" maskUnits="userSpaceOnUse" x="364" y="81" width="73" height="26">
<path d="M436.709 86.8274L373.593 106.388L364.574 105.678L371.79 100.573L434.908 81.0127L436.709 86.8274Z" fill="white"/>
</mask>
<g mask="url(#mask3_162_2429)">
<path d="M373.047 98.1289L373.169 101.695L375.611 103.232L374.188 104.983L376.702 107.808L365.52 107.67L362.193 101.165L373.047 98.1289Z" fill="#F8AA60"/>
<path d="M364.395 95.5808L356.623 97.9893L361.532 113.832L369.304 111.424L364.395 95.5808Z" fill="#FA4C10"/>
</g>
<path d="M373.468 101.602L433.851 82.8887" stroke="#120A28" stroke-width="0.9802" stroke-miterlimit="10" stroke-linecap="round" stroke-linejoin="round"/>
<path d="M287.447 22.6703L272.306 39.3431C269.709 42.203 265.284 42.4161 262.424 39.8188L260.456 38.031C257.596 35.4337 257.383 31.0092 259.98 28.1493L275.121 11.4766L287.447 22.6703Z" fill="#FED700"/>
<path d="M275.127 11.4779L260.371 27.7266L272.698 38.9207L287.454 22.672L275.127 11.4779Z" fill="#FF8B81"/>
<path d="M285.589 24.7167C278.129 24.2448 270.813 24.0457 263.66 24.0966L260.365 27.7261L272.691 38.9199L285.589 24.7167Z" fill="#65D0A9"/>
<path d="M161.99 204.402L85.4119 219.418L98.642 286.89L161.99 204.402ZM99.7366 229.105L132.253 222.729L105.355 257.756L99.7366 229.105Z" fill="#AB6DDC"/>
<path d="M161.99 204.402L85.4119 219.418L98.642 286.89L161.99 204.402ZM99.7366 229.105L132.253 222.729L105.355 257.756L99.7366 229.105Z" fill="#FF8B81"/>
<path d="M95.663 271.697C99.2238 272.981 103.167 274.195 107.528 275.32L161.99 204.403L85.4124 219.419L95.663 271.697ZM105.355 257.756L99.737 229.106L132.254 222.73L105.355 257.756Z" fill="#AB6DDC"/>
<path d="M155.092 212.731L152.392 210.687" stroke="#120A28" stroke-width="0.9802" stroke-miterlimit="10" stroke-linecap="round" stroke-linejoin="round"/>
<path d="M150.547 218.733L147.846 216.688" stroke="#120A28" stroke-width="0.9802" stroke-miterlimit="10" stroke-linecap="round" stroke-linejoin="round"/>
<path d="M146.002 224.734L143.302 222.688" stroke="#120A28" stroke-width="0.9802" stroke-miterlimit="10" stroke-linecap="round" stroke-linejoin="round"/>
<path d="M141.458 230.736L138.757 228.69" stroke="#120A28" stroke-width="0.9802" stroke-miterlimit="10" stroke-linecap="round" stroke-linejoin="round"/>
<path d="M136.912 236.738L134.212 234.692" stroke="#120A28" stroke-width="0.9802" stroke-miterlimit="10" stroke-linecap="round" stroke-linejoin="round"/>
<path d="M132.367 242.738L129.667 240.693" stroke="#120A28" stroke-width="0.9802" stroke-miterlimit="10" stroke-linecap="round" stroke-linejoin="round"/>
<path d="M127.822 248.741L125.122 246.695" stroke="#120A28" stroke-width="0.9802" stroke-miterlimit="10" stroke-linecap="round" stroke-linejoin="round"/>
<path d="M123.277 254.743L120.576 252.697" stroke="#120A28" stroke-width="0.9802" stroke-miterlimit="10" stroke-linecap="round" stroke-linejoin="round"/>
<path d="M118.732 260.745L116.031 258.699" stroke="#120A28" stroke-width="0.9802" stroke-miterlimit="10" stroke-linecap="round" stroke-linejoin="round"/>
<path d="M114.188 266.745L111.487 264.7" stroke="#120A28" stroke-width="0.9802" stroke-miterlimit="10" stroke-linecap="round" stroke-linejoin="round"/>
<path d="M109.642 272.746L106.942 270.701" stroke="#120A28" stroke-width="0.9802" stroke-miterlimit="10" stroke-linecap="round" stroke-linejoin="round"/>
<path d="M105.097 278.748L102.396 276.703" stroke="#120A28" stroke-width="0.9802" stroke-miterlimit="10" stroke-linecap="round" stroke-linejoin="round"/>
<path d="M420.506 42.3397C409.766 27.3975 388.947 23.9912 374.004 34.7309C359.062 45.4706 355.656 66.2899 366.396 81.2321L420.506 42.3397Z" fill="#65D0A9"/>
<path d="M396.181 59.8243C387.756 53.3882 377.657 47.6072 366.165 42.665C358.263 53.9402 357.905 69.4205 366.396 81.2331L396.181 59.8243Z" fill="#AB6DDC"/>
<path d="M12.0903 171.441C16.8868 169.256 53.063 177.918 62.7788 185.483C62.7788 185.483 112.656 190.194 110.879 198.184C108.891 207.13 95.665 246.749 95.665 246.749L53.4592 232.181C53.4592 232.181 48.8948 235.623 47.1739 233.341C45.4529 231.058 42.633 228.459 42.633 228.459C42.633 228.459 -0.365872 216.637 0.0246163 217.345C0.415105 218.053 7.29444 173.626 12.0903 171.441Z" fill="#65D0A9"/>
<path d="M6.07764 214.928L15.8615 170.745C15.8615 170.745 29.8186 168.825 44.3601 173.024C61.3864 177.941 62.9376 184.934 62.9376 184.934C62.9376 184.934 72.5999 182.047 84.4545 184.602C100.7 188.103 108.841 197 108.841 197L94.5786 242.269C94.5786 242.269 85.2533 235.411 70.4236 231.129C54.8887 226.642 48.4424 228.947 48.4424 228.947C48.4424 228.947 31.5987 215.157 6.07764 214.928Z" fill="#FCF6E6"/>
<path d="M48.4422 228.946C45.013 231.972 57.8114 192.38 61.1305 185.008C62.0978 182.858 63.0454 174.255 80.7179 172.813C98.3903 171.371 101.357 177.583 101.357 177.583L84.1776 226.77C84.1776 226.77 59.6207 219.084 48.4422 228.946Z" fill="#E5D9BE"/>
<path d="M20.6228 181.045C20.6228 181.045 42.4571 179.615 54.8344 190.33" stroke="#120A28" stroke-width="0.9802" stroke-miterlimit="10" stroke-linecap="round" stroke-linejoin="round"/>
<path d="M17.2917 192.579C17.2917 192.579 39.126 191.149 51.5033 201.864" stroke="#120A28" stroke-width="0.9802" stroke-miterlimit="10" stroke-linecap="round" stroke-linejoin="round"/>
<path d="M13.8029 204.663C13.8029 204.663 35.6371 203.233 48.0138 213.948" stroke="#120A28" stroke-width="0.9802" stroke-miterlimit="10" stroke-linecap="round" stroke-linejoin="round"/>
<path d="M61.8584 189.538C61.8584 189.538 79.7846 177.828 89.7891 186.737" stroke="#120A28" stroke-width="0.9802" stroke-miterlimit="10" stroke-linecap="round" stroke-linejoin="round"/>
<path d="M59.5911 201.327C59.5911 201.327 72.4447 190.859 84.5785 196.538" stroke="#120A28" stroke-width="0.9802" stroke-miterlimit="10" stroke-linecap="round" stroke-linejoin="round"/>
<path d="M55.0259 214.213C55.0259 214.213 68.4246 205.14 81.9588 211.766" stroke="#120A28" stroke-width="0.9802" stroke-miterlimit="10" stroke-linecap="round" stroke-linejoin="round"/>
<path d="M398.487 32.4414C405.788 29.4171 409.255 21.0466 406.231 13.7455C403.206 6.44434 394.836 2.97728 387.535 6.00158C380.234 9.02587 376.767 17.3963 379.791 24.6974C382.815 31.9986 391.186 35.4656 398.487 32.4414Z" fill="#4CAF4F"/>
<path d="M217.706 91.3604L184.913 116.095L222.73 132.127L217.706 91.3604Z" fill="#FF8B81"/>
</svg>
