<svg width="36" height="24" viewBox="0 0 36 24" fill="none" xmlns="http://www.w3.org/2000/svg">
<path d="M19.5317 13.1338L14.1407 22.3667L8.74985 13.1338H19.5317ZM20.9759 12.3086H7.2998L14.1407 23.9998L20.9759 12.3086Z" fill="#263238"/>
<path d="M28.904 1.65038L34.2949 10.8833H23.513L28.904 1.65038ZM28.904 0L22.063 11.6912H35.7449L28.904 0Z" fill="#263238"/>
<path d="M0.745117 0L6.48102 10.3409L12.749 0.259661L0.745117 0Z" fill="#4CAF4F"/>
<path d="M14.1405 0.90625L20.1571 11.1894H8.1123L14.1405 0.90625Z" fill="#4CAF4F"/>
<path d="M21.7068 13.4336L27.7292 23.9995H15.3979L21.5197 13.4336H21.7068Z" fill="#4CAF4F"/>
<path d="M23.0103 12.7939L28.904 23.1983L34.8796 12.7939H23.0103Z" fill="#4CAF4F"/>
</svg>
